<?xml version="1.0" encoding="UTF-8"?>
<svg id="Layer_1" data-name="Layer 1" xmlns="http://www.w3.org/2000/svg" viewBox="0 0 280.59 186.35">
  <defs>
    <style>
      .cls-1 {
        fill: #131313;
      }

      .cls-2 {
        fill: #f7fcfc;
      }
    </style>
  </defs>
  <rect class="cls-1" x="-25.54" y="-15.5" width="331.66" height="217.36"/>
  <g>
    <path class="cls-2" d="M24.85,113.68c0-.35.1-.46.39-.46h46.35c2.6,0,3.57-.69,4.24-1.27.67-.81.96-2.08.96-4.74,0-2.43-.39-4.05-1.06-4.74-.48-.81-1.54-1.39-4.14-1.39H25.24c-.29,0-.39-.12-.39-.46v-15.73c0-.35.1-.46.39-.46h47.12c13.01,0,19.47,7.63,19.47,22.78,0,5.2-1.06,10.64-4.43,14.22,4.91,4.05,6.55,10.29,6.55,17.23v3.59c0,16.31-7.61,24.17-20.82,24.17H25.24c-.29,0-.39-.12-.39-.46v-16.54c0-.35.1-.46.39-.46h47.22c4.24,0,5.97-1.27,5.97-6.71v-3.59c0-5.43-1.45-7.29-5.97-7.29H25.24c-.29,0-.39-.12-.39-.46v-17.23Z"/>
    <path class="cls-2" d="M237.3,84.94c.87,0,1.93.23,2.7,1.27.87,1.04,1.06,2.31,1.06,3.24v71.93c0,.92-.19,2.2-1.06,3.24-.77,1.04-1.83,1.27-2.7,1.27h-8.48c-2.22,0-3.76-1.85-3.76-4.51v-71.93c0-2.66,1.54-4.51,3.76-4.51h8.48Z"/>
    <g>
      <path class="cls-2" d="M155.47,163.23c-.3,0-.61,0-.91,0-16.92,0-31.79-8.74-40.35-21.95l22.61-27.41,4.2,11.13,1.24,3.26,13.21,34.97Z"/>
      <path class="cls-2" d="M111.71,93.43c-3.32,6.53-5.2,13.92-5.2,21.75,0,8.51,2.21,16.51,6.09,23.44l23.62-26.32,2.23-2.49,9.21-10.75-35.95-5.63Z"/>
      <path class="cls-2" d="M151.34,67.24c-16.24,1.07-30.27,10.22-38.13,23.46l16.59,3.36,2.92.59,16.35,3.32,3.38.69,13.4,2.93-14.51-34.36Z"/>
      <path class="cls-2" d="M154.56,67.13h-.09l12.99,34.58,1.24,3.29,4.63,12.32,21.92-27.71c-8.51-13.5-23.55-22.47-40.68-22.47Z"/>
      <path class="cls-2" d="M162.65,132.31l-18.64-3.52,14.57,34.27h0c16.17-1.34,30.06-10.68,37.72-24.06l-33.65-6.69Z"/>
      <path class="cls-2" d="M196.83,92.32l-22.86,26.74-2.2,2.58-7.95,9.3,33.92,5.33c3.12-6.36,4.86-13.52,4.86-21.08,0-8.27-2.09-16.07-5.78-22.86Z"/>
      <path class="cls-2" d="M255.47,65.42c-.13-.85-.32-1.69-.55-2.51-2.56-8.91-11.03-14.83-20.3-14.83h-29.65c-3.89-7.19-8.64-12.36-14.97-13.72-1.83-.39-3.28-1.74-3.97-3.47-1.04-2.64-2.65-5.07-4.93-7.26-2.45-2.37-5.74-3.69-9.16-3.69h-35.85c-2.25,0-4.47.69-6.27,2.05-3.31,2.52-5.92,5.85-8.07,9.7-.78,1.39-2.01,2.48-3.51,3.02-7.19,2.55-10.58,7.7-13.2,13.37h-30.4c-10.21,0-18.74,7.19-20.78,16.79-.31,1.43-.47,2.93-.47,4.47,0,1.12.09,2.21.25,3.28.15.93,1.32,1.21,1.89.46,2.9-3.78,7.05-6.53,11.85-7.66h44.74c-3.83,6.53-6.01,14.03-6.01,22.01v.06c0,1.33,1.81,1.72,2.36.51,4.4-9.76,12.76-17.8,23.35-22.59,6.83-3.1,14.59-4.84,22.82-4.84s16,1.75,22.82,4.84c10.64,4.81,19.02,12.89,23.41,22.7.54,1.22,2.36.86,2.37-.47v-.22c0-7.98-2.18-15.49-6.01-22.01h41.79c5.88,1.05,10.92,4.54,14.01,9.41.5.77,1.65.6,1.9-.28.52-1.84.8-3.78.8-5.77,0-1.14-.09-2.27-.27-3.35ZM94.83,59.54c-.38.37-.88.6-1.46.6h-16.32c-1.13,0-2.05-.92-2.05-2.05,0-1.48.59-2.82,1.56-3.78.97-.97,2.31-1.56,3.78-1.56h9.74c2.94,0,5.34,2.38,5.34,5.34,0,.56-.23,1.08-.59,1.45ZM179.37,38.51c-.74.73-1.77,1.2-2.9,1.2h-44.35c-2.27,0-4.1-1.83-4.1-4.1,0-2.94,1.2-5.62,3.13-7.55,1.94-1.93,4.62-3.13,7.56-3.13h31.17c5.9,0,10.69,4.78,10.69,10.68,0,1.13-.45,2.16-1.2,2.9Z"/>
    </g>
  </g>
</svg>