<?xml version="1.0" encoding="UTF-8"?>
<svg id="Layer_1" data-name="Layer 1" xmlns="http://www.w3.org/2000/svg" viewBox="0 0 560.78 156.71">
  <defs>
    <style>
      .cls-1 {
        fill: #fff;
      }

      .cls-2 {
        fill: #f6ae2b;
      }
    </style>
  </defs>
  <g>
    <path class="cls-1" d="M28.8,89.99c0-.2.05-.26.22-.26h26.36c1.48,0,2.03-.39,2.41-.72.38-.46.55-1.18.55-2.7,0-1.38-.22-2.3-.6-2.7-.27-.46-.88-.79-2.36-.79h-26.36c-.16,0-.22-.07-.22-.26v-8.95c0-.2.05-.26.22-.26h26.8c7.4,0,11.07,4.34,11.07,12.96,0,2.96-.6,6.05-2.52,8.09,2.79,2.3,3.73,5.85,3.73,9.8v2.04c0,9.27-4.33,13.75-11.84,13.75h-27.24c-.16,0-.22-.07-.22-.26v-9.41c0-.2.05-.26.22-.26h26.85c2.41,0,3.4-.72,3.4-3.81v-2.04c0-3.09-.82-4.14-3.4-4.14h-26.85c-.16,0-.22-.07-.22-.26v-9.8Z"/>
    <path class="cls-1" d="M81.08,73.61c.49,0,1.1.13,1.53.72.49.59.6,1.32.6,1.84v40.91c0,.53-.11,1.25-.6,1.84-.44.59-1.04.72-1.53.72h-4.82c-1.26,0-2.14-1.05-2.14-2.56v-40.91c0-1.51.88-2.57,2.14-2.57h4.82Z"/>
    <path class="cls-1" d="M89.25,86.11c0-8.48,3.73-12.69,10.8-12.69h35.29c1.33,0,2.41,1.08,2.41,2.41v5.24c0,1.33-1.08,2.41-2.41,2.41h-33.92c-1.37,0-2.08.33-2.47.79-.38.33-.6,1.18-.6,2.43v19.86c0,1.25.22,2.1.6,2.43.38.46,1.1.86,2.47.86h24.5c1.31,0,1.92-.26,2.19-.72.27-.33.55-.99.55-2.56v-2.3h-3.07c-1.48,0-2.47-1.12-2.47-2.89v-4.21c0-1.78.99-2.89,2.47-2.89h9.81c1.48,0,2.36,1.12,2.36,2.89v10.06c0,8.22-3.67,12.69-10.52,12.69h-27.18c-6.85,0-10.8-4.21-10.8-12.69v-21.11Z"/>
    <path class="cls-1" d="M144.88,109.06l28.55-25.39h-27.4c-1.31,0-2.14-.99-2.14-2.56v-4.93c0-.53.11-1.25.6-1.84.44-.59,1.04-.72,1.53-.72h39.52c1.26,0,2.14,1.05,2.14,2.57v5.39c0,1.12-.38,2.04-1.1,2.63l-28.55,25.39h27.57c.44,0,1.04.13,1.53.72.49.53.6,1.25.6,1.84v4.93c0,1.51-.88,2.56-2.14,2.56h-39.68c-1.26,0-2.14-1.05-2.14-2.56v-5.39c0-.2,0-.72.27-1.45.16-.46.44-.85.82-1.18Z"/>
  </g>
  <g>
    <path class="cls-1" d="M434.53,86.11c0-8.48,3.73-12.69,10.8-12.69h35.29c1.33,0,2.41,1.08,2.41,2.41v5.24c0,1.33-1.08,2.41-2.41,2.41h-33.92c-1.37,0-2.08.33-2.47.79-.38.33-.6,1.18-.6,2.43v19.86c0,1.25.22,2.1.6,2.43.38.46,1.1.86,2.47.86h24.5c1.31,0,1.92-.26,2.19-.72.27-.33.55-.99.55-2.56v-2.3h-3.07c-1.48,0-2.47-1.12-2.47-2.89v-4.21c0-1.78.99-2.89,2.47-2.89h9.81c1.48,0,2.36,1.12,2.36,2.89v10.06c0,8.22-3.67,12.69-10.52,12.69h-27.18c-6.85,0-10.8-4.21-10.8-12.69v-21.11Z"/>
    <path class="cls-1" d="M304.03,73.61c.49,0,1.1.13,1.53.72.49.59.6,1.32.6,1.84v40.91c0,.53-.11,1.25-.6,1.84-.44.59-1.04.72-1.53.72h-4.82c-1.26,0-2.14-1.05-2.14-2.56v-40.91c0-1.51.88-2.57,2.14-2.57h4.82Z"/>
    <path class="cls-1" d="M312.2,76.18c0-1.51.88-2.57,2.14-2.57h7.4c.38,0,.77.13,1.15.39.6.33.88.86,1.04,1.32l16.17,31.44,16.17-31.44c.16-.46.44-.99,1.04-1.32.38-.26.77-.39,1.21-.39h7.34c.49,0,1.1.13,1.53.72.49.59.6,1.32.6,1.84v40.91c0,.53-.11,1.25-.6,1.84-.44.59-1.04.72-1.53.72h-4.82c-.49,0-1.1-.13-1.53-.72-.49-.59-.6-1.32-.6-1.84v-27.03l-14.3,27.89c-.55,1.12-1.32,1.71-2.36,1.71h-4.33c-.99,0-1.75-.59-2.3-1.71l-14.3-27.89v27.03c0,.53-.11,1.25-.6,1.84-.44.59-1.04.72-1.53.72h-4.82c-1.26,0-2.14-1.05-2.14-2.56v-40.91Z"/>
    <path class="cls-1" d="M374.41,115.9l21.98-40.58c.16-.33.49-.85,1.1-1.32.33-.26.71-.39,1.15-.39h5.26c1.04,0,1.81.72,2.3,1.78l21.92,40.58c.22.4.33.85.38,1.32,0,.85-.27,1.51-.88,2.04-.44.2-.82.33-1.15.33h-5.64c-.44,0-.82-.13-1.1-.33-.66-.46-.99-1.12-1.15-1.45l-1.15-2.17-1.86-3.35-14.08-26.18c-.16-.2-.27-.2-.44,0l-8.77,16.24-5.26,9.93-3.01,5.52c-.22.46-.55.99-1.15,1.45-.55.2-.93.33-1.15.33h-5.65c-.33,0-.71-.13-1.15-.33-.6-.53-.88-1.18-.88-2.04,0-.53.22-.92.38-1.38Z"/>
    <path class="cls-1" d="M489.57,74.47l.27-.26c.49-.53,1.15-.66,1.59-.59h38.19c.38,0,.71.07.99.26.6.46.88.72,1.04,1.58.06.46.11.66.11.72v4.93c0,.59-.11,1.31-.6,1.91-.49.53-1.1.66-1.53.66h-38.46c-.38,0-.88,0-1.26-.46-.16-.07-.11-.13-.27-.2-.49-.59-.6-1.32-.6-1.84v-4.41c0-.26.06-.53.06-.79.05-.46.11-1.05.49-1.51ZM489.03,94.66l.11-.79c0-.46.16-.99.49-1.45l.27-.26c.49-.53,1.15-.59,1.64-.53h31.58c.38,0,.88,0,1.26.46.38.2.71.92.77,1.38.06.07.06.33.06.72v4.87c0,1.58-.82,2.56-2.14,2.56h-31.91c-.38,0-.88,0-1.32-.46-.05-.07-.16-.07-.22-.26-.33-.33-.55-.79-.6-1.38v-4.87ZM489.03,112.81c0-.46,0-.72.06-.79,0-.59.16-1.12.44-1.58.49-.59.88-.85,1.59-.85h38.73c.93,0,1.92.59,2.08,1.84.06.07.06.33.06.72v4.93c0,.53-.11,1.25-.55,1.84l-.16.2c-.44.46-.99.53-1.43.53h-38.68c-.49,0-.93-.13-1.32-.46-.05-.07-.16-.07-.22-.26-.44-.53-.6-1.25-.6-1.78v-4.34Z"/>
  </g>
  <path class="cls-2" d="M242.98,132.02c-.23,0-.45,0-.68,0-12.68,0-23.82-6.55-30.23-16.45l16.94-20.54,3.15,8.34.93,2.44,9.9,26.2Z"/>
  <path class="cls-2" d="M210.19,79.74c-2.49,4.89-3.89,10.43-3.89,16.3,0,6.38,1.66,12.37,4.56,17.56l17.69-19.72,1.67-1.86,6.9-8.05-26.93-4.22Z"/>
  <path class="cls-2" d="M239.88,60.12c-12.17.8-22.68,7.65-28.56,17.58l12.43,2.52,2.19.44,12.25,2.49,2.53.52,10.04,2.2-10.87-25.74Z"/>
  <path class="cls-1" d="M242.3,60.04h-.07l9.73,25.91.93,2.46,3.47,9.23,16.42-20.76c-6.37-10.12-17.64-16.84-30.48-16.84Z"/>
  <path class="cls-2" d="M248.36,108.87l-13.96-2.63,10.91,25.67h0c12.11-1,22.52-8,28.26-18.02l-25.21-5.01Z"/>
  <path class="cls-2" d="M273.96,78.91l-17.12,20.03-1.65,1.93-5.96,6.97,25.41,3.99c2.33-4.77,3.64-10.13,3.64-15.8,0-6.2-1.57-12.04-4.33-17.13Z"/>
  <path class="cls-2" d="M317.89,58.75c-.1-.64-.24-1.27-.41-1.88-1.92-6.67-8.27-11.11-15.21-11.11h-22.21c-2.92-5.39-6.47-9.26-11.22-10.28-1.37-.29-2.46-1.3-2.97-2.6-.78-1.98-1.99-3.8-3.69-5.44-1.83-1.78-4.3-2.76-6.86-2.76h-26.86c-1.69,0-3.35.52-4.69,1.54-2.48,1.89-4.44,4.38-6.04,7.26-.58,1.04-1.5,1.86-2.63,2.26-5.39,1.91-7.93,5.77-9.89,10.02h-22.77c-7.65,0-14.04,5.39-15.57,12.58-.23,1.07-.36,2.2-.36,3.35,0,.84.06,1.66.19,2.46.11.7.99.91,1.41.35,2.17-2.83,5.28-4.89,8.88-5.74h33.52c-2.87,4.89-4.5,10.51-4.5,16.49v.05c0,.99,1.36,1.28,1.77.38,3.3-7.31,9.56-13.33,17.49-16.92,5.12-2.32,10.93-3.63,17.1-3.63s11.98,1.31,17.1,3.63c7.97,3.6,14.25,9.66,17.53,17.01.4.91,1.77.65,1.78-.36v-.16c0-5.98-1.63-11.6-4.5-16.49h31.3c4.4.78,8.18,3.4,10.5,7.05.37.57,1.24.45,1.42-.21.39-1.38.6-2.83.6-4.32,0-.86-.06-1.7-.2-2.51ZM197.55,54.35c-.28.27-.66.45-1.09.45h-12.23c-.85,0-1.54-.69-1.54-1.54,0-1.11.44-2.11,1.17-2.83.73-.73,1.73-1.17,2.83-1.17h7.3c2.21,0,4,1.79,4,4,0,.42-.17.81-.44,1.08ZM260.88,38.59c-.56.55-1.33.9-2.17.9h-33.23c-1.7,0-3.07-1.37-3.07-3.07,0-2.21.9-4.21,2.34-5.66,1.45-1.45,3.46-2.34,5.66-2.34h23.35c4.42,0,8.01,3.58,8.01,8,0,.85-.34,1.62-.9,2.17Z"/>
</svg>