<?xml version="1.0" encoding="UTF-8"?>
<svg id="Layer_1" data-name="Layer 1" xmlns="http://www.w3.org/2000/svg" viewBox="0 0 560.78 156.71">
  <defs>
    <style>
      .cls-1 {
        fill: #f7fcfc;
      }
    </style>
  </defs>
  <g>
    <path class="cls-1" d="M28.56,90c0-.2.05-.26.22-.26h26.39c1.48,0,2.03-.39,2.41-.72.38-.46.55-1.19.55-2.7,0-1.38-.22-2.3-.6-2.7-.27-.46-.88-.79-2.36-.79h-26.39c-.17,0-.22-.07-.22-.26v-8.95c0-.2.05-.26.22-.26h26.82c7.41,0,11.08,4.34,11.08,12.97,0,2.96-.6,6.06-2.52,8.1,2.8,2.3,3.73,5.86,3.73,9.81v2.04c0,9.28-4.33,13.76-11.85,13.76h-27.26c-.17,0-.22-.07-.22-.26v-9.41c0-.2.05-.26.22-.26h26.88c2.41,0,3.4-.72,3.4-3.82v-2.04c0-3.09-.82-4.15-3.4-4.15h-26.88c-.17,0-.22-.07-.22-.26v-9.81Z"/>
    <path class="cls-1" d="M80.9,73.61c.49,0,1.1.13,1.54.72.49.59.6,1.32.6,1.84v40.95c0,.53-.11,1.25-.6,1.84-.44.59-1.04.72-1.54.72h-4.83c-1.26,0-2.14-1.05-2.14-2.57v-40.95c0-1.51.88-2.57,2.14-2.57h4.83Z"/>
    <path class="cls-1" d="M89.07,86.12c0-8.49,3.73-12.7,10.81-12.7h35.33c1.33,0,2.41,1.08,2.41,2.41v5.24c0,1.33-1.08,2.41-2.41,2.41h-33.96c-1.37,0-2.08.33-2.47.79-.38.33-.6,1.19-.6,2.44v19.88c0,1.25.22,2.11.6,2.44.38.46,1.1.86,2.47.86h24.52c1.32,0,1.92-.26,2.19-.72.27-.33.55-.99.55-2.57v-2.3h-3.07c-1.48,0-2.47-1.12-2.47-2.9v-4.21c0-1.78.99-2.9,2.47-2.9h9.82c1.48,0,2.36,1.12,2.36,2.9v10.07c0,8.23-3.68,12.7-10.53,12.7h-27.21c-6.86,0-10.81-4.21-10.81-12.7v-21.13Z"/>
    <path class="cls-1" d="M144.75,109.09l28.58-25.41h-27.43c-1.32,0-2.14-.99-2.14-2.57v-4.94c0-.53.11-1.25.6-1.84.44-.59,1.04-.72,1.54-.72h39.55c1.26,0,2.14,1.05,2.14,2.57v5.4c0,1.12-.38,2.04-1.1,2.63l-28.58,25.41h27.59c.44,0,1.04.13,1.54.72.49.53.6,1.25.6,1.84v4.94c0,1.51-.88,2.57-2.14,2.57h-39.72c-1.26,0-2.14-1.05-2.14-2.57v-5.4c0-.2,0-.72.27-1.45.16-.46.44-.86.82-1.19Z"/>
  </g>
  <g>
    <path class="cls-1" d="M434.68,86.12c0-8.49,3.73-12.7,10.81-12.7h35.33c1.33,0,2.41,1.08,2.41,2.41v5.24c0,1.33-1.08,2.41-2.41,2.41h-33.96c-1.37,0-2.08.33-2.47.79-.38.33-.6,1.19-.6,2.44v19.88c0,1.25.22,2.11.6,2.44.38.46,1.1.86,2.47.86h24.52c1.32,0,1.92-.26,2.19-.72.27-.33.55-.99.55-2.57v-2.3h-3.07c-1.48,0-2.47-1.12-2.47-2.9v-4.21c0-1.78.99-2.9,2.47-2.9h9.82c1.48,0,2.36,1.12,2.36,2.9v10.07c0,8.23-3.68,12.7-10.53,12.7h-27.21c-6.86,0-10.81-4.21-10.81-12.7v-21.13Z"/>
    <path class="cls-1" d="M304.06,73.61c.49,0,1.1.13,1.54.72.49.59.6,1.32.6,1.84v40.95c0,.53-.11,1.25-.6,1.84-.44.59-1.04.72-1.54.72h-4.83c-1.26,0-2.14-1.05-2.14-2.57v-40.95c0-1.51.88-2.57,2.14-2.57h4.83Z"/>
    <path class="cls-1" d="M312.23,76.18c0-1.51.88-2.57,2.14-2.57h7.41c.38,0,.77.13,1.15.39.6.33.88.86,1.04,1.32l16.18,31.47,16.18-31.47c.17-.46.44-.99,1.04-1.32.38-.26.77-.39,1.21-.39h7.35c.49,0,1.1.13,1.54.72.49.59.6,1.32.6,1.84v40.95c0,.53-.11,1.25-.6,1.84-.44.59-1.04.72-1.54.72h-4.83c-.49,0-1.1-.13-1.54-.72-.49-.59-.6-1.32-.6-1.84v-27.06l-14.32,27.91c-.55,1.12-1.32,1.71-2.36,1.71h-4.33c-.99,0-1.76-.59-2.3-1.71l-14.32-27.91v27.06c0,.53-.11,1.25-.6,1.84-.44.59-1.04.72-1.54.72h-4.83c-1.26,0-2.14-1.05-2.14-2.57v-40.95Z"/>
    <path class="cls-1" d="M374.5,115.94l22-40.62c.17-.33.49-.86,1.1-1.32.33-.26.71-.39,1.15-.39h5.27c1.04,0,1.81.72,2.3,1.78l21.94,40.62c.22.4.33.86.38,1.32,0,.86-.27,1.51-.88,2.04-.44.2-.82.33-1.15.33h-5.65c-.44,0-.82-.13-1.1-.33-.66-.46-.99-1.12-1.15-1.45l-1.15-2.17-1.86-3.36-14.1-26.2c-.17-.2-.27-.2-.44,0l-8.78,16.26-5.27,9.94-3.02,5.53c-.22.46-.55.99-1.15,1.45-.55.2-.93.33-1.15.33h-5.65c-.33,0-.71-.13-1.15-.33-.6-.53-.88-1.19-.88-2.04,0-.53.22-.92.38-1.38Z"/>
    <path class="cls-1" d="M489.77,74.46l.27-.26c.49-.53,1.15-.66,1.59-.59h38.22c.38,0,.71.07.99.26.6.46.88.72,1.04,1.58.06.46.11.66.11.72v4.94c0,.59-.11,1.32-.6,1.91-.49.53-1.1.66-1.54.66h-38.5c-.38,0-.88,0-1.26-.46-.16-.07-.11-.13-.27-.2-.49-.59-.6-1.32-.6-1.84v-4.41c0-.26.06-.53.06-.79.05-.46.11-1.05.49-1.51ZM489.22,94.67l.11-.79c0-.46.16-.99.49-1.45l.27-.26c.49-.53,1.15-.59,1.65-.53h31.61c.38,0,.88,0,1.26.46.38.2.71.92.77,1.38.06.07.06.33.06.72v4.87c0,1.58-.82,2.57-2.14,2.57h-31.94c-.38,0-.88,0-1.32-.46-.05-.07-.16-.07-.22-.26-.33-.33-.55-.79-.6-1.38v-4.87ZM489.22,112.84c0-.46,0-.72.06-.79,0-.59.16-1.12.44-1.58.49-.59.88-.86,1.59-.86h38.77c.93,0,1.92.59,2.08,1.84.06.07.06.33.06.72v4.94c0,.53-.11,1.25-.55,1.84l-.16.2c-.44.46-.99.53-1.43.53h-38.72c-.49,0-.93-.13-1.32-.46-.05-.07-.16-.07-.22-.26-.44-.53-.6-1.25-.6-1.78v-4.34Z"/>
  </g>
  <path class="cls-1" d="M242.94,132.08c-.23,0-.45,0-.68,0-12.69,0-23.84-6.55-30.26-16.46l16.95-20.56,3.15,8.35.93,2.45,9.91,26.22Z"/>
  <path class="cls-1" d="M210.13,79.74c-2.49,4.9-3.9,10.44-3.9,16.31,0,6.38,1.66,12.38,4.57,17.58l17.71-19.74,1.67-1.86,6.91-8.06-26.96-4.22Z"/>
  <path class="cls-1" d="M239.84,60.1c-12.18.8-22.7,7.66-28.59,17.59l12.44,2.52,2.19.44,12.26,2.49,2.53.52,10.05,2.2-10.88-25.76Z"/>
  <path class="cls-1" d="M242.26,60.02h-.07l9.74,25.93.93,2.46,3.47,9.24,16.44-20.78c-6.38-10.12-17.66-16.85-30.51-16.85Z"/>
  <path class="cls-1" d="M248.32,108.9l-13.98-2.64,10.92,25.69h0c12.12-1,22.54-8.01,28.28-18.04l-25.24-5.02Z"/>
  <path class="cls-1" d="M273.96,78.91l-17.14,20.05-1.65,1.93-5.96,6.97,25.44,4c2.34-4.77,3.65-10.14,3.65-15.81,0-6.2-1.57-12.05-4.33-17.14Z"/>
  <path class="cls-1" d="M317.93,58.73c-.1-.64-.24-1.27-.41-1.88-1.92-6.68-8.27-11.12-15.22-11.12h-22.23c-2.92-5.39-6.48-9.27-11.23-10.29-1.38-.29-2.46-1.3-2.98-2.6-.78-1.98-1.99-3.8-3.7-5.44-1.84-1.78-4.3-2.77-6.87-2.77h-26.89c-1.69,0-3.35.52-4.7,1.54-2.48,1.89-4.44,4.38-6.05,7.27-.58,1.04-1.5,1.86-2.63,2.26-5.39,1.91-7.93,5.77-9.9,10.03h-22.79c-7.66,0-14.05,5.39-15.59,12.59-.23,1.08-.36,2.2-.36,3.35,0,.84.06,1.66.19,2.46.11.7.99.91,1.42.35,2.18-2.83,5.29-4.89,8.89-5.74h33.55c-2.87,4.89-4.51,10.52-4.51,16.51v.05c0,.99,1.36,1.29,1.77.38,3.3-7.32,9.57-13.35,17.51-16.94,5.12-2.32,10.94-3.63,17.11-3.63s11.99,1.31,17.11,3.63c7.98,3.61,14.26,9.67,17.55,17.03.4.91,1.77.65,1.78-.36v-.16c0-5.99-1.63-11.61-4.51-16.51h31.33c4.41.78,8.19,3.41,10.51,7.05.37.57,1.24.45,1.42-.21.39-1.38.6-2.83.6-4.33,0-.86-.06-1.7-.2-2.52ZM197.47,54.33c-.28.27-.66.45-1.09.45h-12.24c-.85,0-1.54-.69-1.54-1.54,0-1.11.44-2.11,1.17-2.83.73-.73,1.73-1.17,2.83-1.17h7.3c2.21,0,4,1.79,4,4,0,.42-.17.81-.44,1.08ZM260.86,38.55c-.56.55-1.33.9-2.18.9h-33.26c-1.7,0-3.07-1.37-3.07-3.07,0-2.21.9-4.21,2.35-5.66,1.46-1.45,3.46-2.35,5.67-2.35h23.37c4.42,0,8.02,3.58,8.02,8.01,0,.85-.34,1.62-.9,2.18Z"/>
</svg>