<?xml version="1.0" encoding="UTF-8"?>
<svg id="Layer_1" data-name="Layer 1" xmlns="http://www.w3.org/2000/svg" viewBox="0 0 509.29 186.35">
  <defs>
    <style>
      .cls-1 {
        fill: #f7fcfc;
      }
    </style>
  </defs>
  <g>
    <g>
      <path class="cls-1" d="M224.52,53.97c0-.21.06-.29.24-.29h28.58c1.6,0,2.2-.43,2.61-.78.42-.5.59-1.28.59-2.92,0-1.5-.24-2.5-.65-2.92-.3-.5-.95-.86-2.55-.86h-28.58c-.18,0-.24-.07-.24-.29v-9.7c0-.21.06-.29.24-.29h29.05c8.02,0,12,4.71,12,14.05,0,3.21-.65,6.56-2.73,8.77,3.03,2.5,4.04,6.35,4.04,10.62v2.21c0,10.05-4.69,14.9-12.83,14.9h-29.53c-.18,0-.24-.07-.24-.29v-10.2c0-.21.06-.29.24-.29h29.11c2.61,0,3.68-.78,3.68-4.14v-2.21c0-3.35-.89-4.49-3.68-4.49h-29.11c-.18,0-.24-.07-.24-.29v-10.62Z"/>
      <path class="cls-1" d="M281.2,36.22c.53,0,1.19.14,1.66.78.53.64.65,1.43.65,2v44.35c0,.57-.12,1.35-.65,2-.48.64-1.13.78-1.66.78h-5.23c-1.37,0-2.32-1.14-2.32-2.78v-44.35c0-1.64.95-2.78,2.32-2.78h5.23Z"/>
      <path class="cls-1" d="M290.05,49.77c0-9.2,4.04-13.76,11.7-13.76h38.26c1.44,0,2.61,1.17,2.61,2.61v5.68c0,1.44-1.17,2.61-2.61,2.61h-36.78c-1.49,0-2.26.36-2.67.86-.42.36-.65,1.28-.65,2.64v21.53c0,1.36.24,2.28.65,2.64.42.5,1.19.93,2.67.93h26.56c1.43,0,2.08-.29,2.38-.79.3-.36.59-1.07.59-2.78v-2.5h-3.33c-1.6,0-2.67-1.21-2.67-3.14v-4.56c0-1.93,1.07-3.14,2.67-3.14h10.64c1.6,0,2.55,1.21,2.55,3.14v10.91c0,8.91-3.98,13.76-11.41,13.76h-29.47c-7.43,0-11.7-4.56-11.7-13.76v-22.89Z"/>
      <path class="cls-1" d="M350.35,74.65l30.95-27.52h-29.71c-1.43,0-2.32-1.07-2.32-2.78v-5.35c0-.57.12-1.36.65-2,.47-.64,1.13-.78,1.66-.78h42.84c1.37,0,2.32,1.14,2.32,2.78v5.85c0,1.21-.42,2.21-1.19,2.85l-30.95,27.52h29.88c.47,0,1.13.14,1.66.78.53.57.65,1.36.65,2v5.35c0,1.64-.95,2.78-2.32,2.78h-43.01c-1.37,0-2.32-1.14-2.32-2.78v-5.85c0-.21,0-.78.3-1.57.18-.5.48-.93.89-1.28Z"/>
    </g>
    <g>
      <path class="cls-1" d="M373.52,113.77c0-9.2,4.04-13.76,11.7-13.76h38.26c1.44,0,2.61,1.17,2.61,2.61v5.68c0,1.44-1.17,2.61-2.61,2.61h-36.78c-1.49,0-2.26.36-2.67.86-.42.36-.65,1.28-.65,2.64v21.53c0,1.36.24,2.28.65,2.64.42.5,1.19.93,2.67.93h26.56c1.43,0,2.08-.29,2.38-.79.3-.36.59-1.07.59-2.78v-2.5h-3.33c-1.6,0-2.67-1.21-2.67-3.14v-4.56c0-1.93,1.07-3.14,2.67-3.14h10.64c1.6,0,2.55,1.21,2.55,3.14v10.91c0,8.91-3.98,13.76-11.41,13.76h-29.47c-7.43,0-11.7-4.56-11.7-13.76v-22.89Z"/>
      <path class="cls-1" d="M232.06,100.23c.53,0,1.19.14,1.66.78.53.64.65,1.43.65,2v44.35c0,.57-.12,1.35-.65,2-.47.64-1.13.78-1.66.78h-5.23c-1.37,0-2.32-1.14-2.32-2.78v-44.35c0-1.64.95-2.78,2.32-2.78h5.23Z"/>
      <path class="cls-1" d="M240.92,103.01c0-1.64.95-2.78,2.32-2.78h8.02c.42,0,.83.14,1.25.43.65.36.95.93,1.13,1.43l17.53,34.08,17.53-34.08c.18-.5.48-1.07,1.13-1.43.42-.29.83-.43,1.31-.43h7.96c.53,0,1.19.14,1.66.78.54.64.65,1.43.65,2v44.35c0,.57-.12,1.35-.65,2-.47.64-1.13.78-1.66.78h-5.23c-.53,0-1.19-.14-1.66-.78-.53-.64-.65-1.43-.65-2v-29.3l-15.51,30.23c-.59,1.21-1.43,1.85-2.56,1.85h-4.69c-1.07,0-1.9-.64-2.5-1.85l-15.51-30.23v29.3c0,.57-.12,1.35-.65,2-.47.64-1.13.78-1.66.78h-5.23c-1.37,0-2.32-1.14-2.32-2.78v-44.35Z"/>
      <path class="cls-1" d="M308.35,146.07l23.82-43.99c.18-.36.53-.93,1.19-1.43.36-.29.77-.43,1.25-.43h5.7c1.13,0,1.96.78,2.5,1.93l23.76,43.99c.24.43.36.93.42,1.43,0,.93-.3,1.64-.95,2.21-.48.21-.89.36-1.25.36h-6.12c-.48,0-.89-.14-1.19-.36-.71-.5-1.07-1.21-1.25-1.57l-1.25-2.35-2.02-3.64-15.27-28.38c-.18-.21-.3-.21-.48,0l-9.51,17.61-5.7,10.77-3.27,5.99c-.24.5-.59,1.07-1.25,1.57-.59.21-1.01.36-1.25.36h-6.12c-.36,0-.77-.14-1.25-.36-.65-.57-.95-1.28-.95-2.21,0-.57.24-1,.42-1.5Z"/>
      <path class="cls-1" d="M433.19,101.15l.3-.29c.53-.57,1.25-.71,1.72-.64h41.4c.42,0,.77.07,1.07.29.65.5.95.78,1.13,1.71.06.5.12.71.12.79v5.35c0,.64-.12,1.43-.65,2.07-.53.57-1.19.71-1.66.71h-41.69c-.42,0-.95,0-1.37-.5-.18-.07-.12-.14-.3-.21-.53-.64-.65-1.43-.65-2v-4.78c0-.29.06-.57.06-.86.06-.5.12-1.14.53-1.64ZM432.6,123.04l.12-.86c0-.5.18-1.07.53-1.57l.3-.29c.54-.57,1.25-.64,1.78-.57h34.23c.42,0,.95,0,1.37.5.42.21.77,1,.83,1.5.06.07.06.36.06.78v5.28c0,1.71-.89,2.78-2.32,2.78h-34.59c-.42,0-.95,0-1.43-.5-.06-.07-.18-.07-.24-.29-.36-.36-.59-.86-.65-1.5v-5.28ZM432.6,142.72c0-.5,0-.78.06-.86,0-.64.18-1.21.47-1.71.53-.64.95-.93,1.72-.93h41.99c1.01,0,2.08.64,2.26,2,.06.07.06.36.06.78v5.35c0,.57-.12,1.35-.59,2l-.18.21c-.48.5-1.07.57-1.54.57h-41.93c-.53,0-1.01-.14-1.43-.5-.06-.07-.18-.07-.24-.29-.47-.57-.65-1.35-.65-1.93v-4.71Z"/>
    </g>
  </g>
  <g>
    <path class="cls-1" d="M118.33,155.07c-.26,0-.52,0-.79,0-14.62,0-27.47-7.55-34.86-18.97l19.53-23.68,3.63,9.61,1.07,2.82,11.42,30.21Z"/>
    <path class="cls-1" d="M80.52,94.77c-2.87,5.64-4.49,12.03-4.49,18.79,0,7.36,1.91,14.26,5.26,20.25l20.4-22.74,1.93-2.15,7.96-9.29-31.06-4.87Z"/>
    <path class="cls-1" d="M114.76,72.15c-14.03.93-26.16,8.83-32.94,20.27l14.33,2.91,2.52.51,14.13,2.87,2.92.6,11.58,2.53-12.54-29.68Z"/>
    <path class="cls-1" d="M117.54,72.05h-.08l11.22,29.87,1.07,2.84,4,10.65,18.94-23.94c-7.35-11.67-20.34-19.42-35.15-19.42Z"/>
    <path class="cls-1" d="M124.53,128.37l-16.1-3.04,12.59,29.6h0c13.97-1.15,25.97-9.23,32.59-20.79l-29.08-5.78Z"/>
    <path class="cls-1" d="M154.06,93.81l-19.75,23.1-1.9,2.23-6.87,8.03,29.31,4.6c2.69-5.5,4.2-11.68,4.2-18.22,0-7.15-1.81-13.88-4.99-19.75Z"/>
    <path class="cls-1" d="M204.72,70.57c-.11-.74-.28-1.46-.48-2.17-2.21-7.7-9.53-12.81-17.54-12.81h-25.62c-3.36-6.22-7.46-10.68-12.93-11.85-1.58-.34-2.83-1.5-3.43-3-.89-2.28-2.29-4.38-4.26-6.27-2.12-2.05-4.96-3.19-7.91-3.19h-30.98c-1.95,0-3.86.6-5.41,1.77-2.86,2.18-5.12,5.05-6.97,8.38-.67,1.2-1.73,2.14-3.03,2.61-6.22,2.2-9.14,6.65-11.41,11.56h-26.26c-8.82,0-16.19,6.22-17.96,14.51-.27,1.24-.41,2.53-.41,3.86,0,.97.07,1.91.21,2.83.13.8,1.14,1.04,1.63.4,2.51-3.26,6.09-5.64,10.24-6.62h38.65c-3.31,5.64-5.19,12.12-5.19,19.02v.06c0,1.15,1.57,1.48,2.04.44,3.8-8.43,11.02-15.38,20.18-19.51,5.9-2.67,12.61-4.18,19.72-4.18s13.82,1.51,19.72,4.18c9.19,4.16,16.43,11.14,20.22,19.62.47,1.05,2.04.75,2.05-.41v-.19c0-6.9-1.88-13.38-5.19-19.02h36.1c5.08.9,9.43,3.92,12.11,8.13.43.66,1.43.52,1.64-.24.45-1.59.69-3.26.69-4.99,0-.99-.07-1.96-.23-2.9ZM65.93,65.49c-.33.32-.76.52-1.26.52h-14.1c-.98,0-1.77-.79-1.77-1.77,0-1.28.51-2.43,1.35-3.26.84-.84,1.99-1.35,3.26-1.35h8.41c2.54,0,4.61,2.06,4.61,4.61,0,.48-.2.93-.51,1.25ZM138.97,47.32c-.64.63-1.53,1.03-2.51,1.03h-38.32c-1.96,0-3.54-1.58-3.54-3.54,0-2.54,1.03-4.86,2.7-6.52,1.68-1.67,3.99-2.7,6.53-2.7h26.93c5.1,0,9.24,4.13,9.24,9.23,0,.98-.39,1.86-1.03,2.51Z"/>
  </g>
</svg>